<?xml version="1.0" encoding="UTF-8"?>
<!DOCTYPE svg PUBLIC "-//W3C//DTD SVG 1.1//EN" "http://www.w3.org/Graphics/SVG/1.1/DTD/svg11.dtd">
<svg version="1.1" xmlns="http://www.w3.org/2000/svg" xmlns:xlink="http://www.w3.org/1999/xlink" width="240" height="240"  xml:space="preserve" id="logo">
    <!-- Generated by PaintCode (www.paintcodeapp.com) -->
    <rect id="logo-rectangle" stroke="none" fill="rgb(39, 39, 39)" x="0" y="0" width="240" height="240" />
    
    <text  fill="rgb(255, 255, 251)" font-family="LFTEtica-Bold, 'LFT Etica', sans-serif" font-weight="bold" font-size="61" x="15" y="165"><tspan x="15" y="221">AKUNE</tspan></text>
    <g id="logo-group">
        <polygon id="logo-star2" stroke="rgb(255, 172, 22)" fill="rgb(255, 172, 22)" points="194.5,38 195.96,42.46 200.36,40.82 197.79,44.75 201.81,47.17 197.14,47.6 197.75,52.26 194.5,48.88 191.25,52.26 191.86,47.6 187.19,47.17 191.21,44.75 188.64,40.82 193.04,42.46" />
        <polygon id="logo-star" stroke="rgb(255, 172, 22)" fill="rgb(255, 172, 22)" points="214.5,67 215.96,71.46 220.36,69.82 217.79,73.75 221.81,76.17 217.14,76.6 217.75,81.26 214.5,77.88 211.25,81.26 211.86,76.6 207.19,76.17 211.21,73.75 208.64,69.82 213.04,71.46" />
        <polygon id="logo-star3" stroke="rgb(255, 172, 22)" fill="rgb(255, 172, 22)" points="225.5,112 226.96,116.46 231.36,114.82 228.79,118.75 232.81,121.17 228.14,121.6 228.75,126.26 225.5,122.88 222.25,126.26 222.86,121.6 218.19,121.17 222.21,118.75 219.64,114.82 224.04,116.46" />
        <polygon id="logo-star4" stroke="rgb(255, 172, 22)" fill="rgb(255, 172, 22)" points="165.5,18 166.96,22.46 171.36,20.82 168.79,24.75 172.81,27.17 168.14,27.6 168.75,32.26 165.5,28.88 162.25,32.26 162.86,27.6 158.19,27.17 162.21,24.75 159.64,20.82 164.04,22.46" />
        <polygon id="logo-star5" stroke="rgb(255, 172, 22)" fill="rgb(255, 172, 22)" points="120.5,7 121.96,11.46 126.36,9.82 123.79,13.75 127.81,16.17 123.14,16.6 123.75,21.26 120.5,17.88 117.25,21.26 117.86,16.6 113.19,16.17 117.21,13.75 114.64,9.82 119.04,11.46" />
        <polygon id="logo-star6" stroke="rgb(255, 172, 22)" fill="rgb(255, 172, 22)" points="75.5,18 76.96,22.46 81.36,20.82 78.79,24.75 82.81,27.17 78.14,27.6 78.75,32.26 75.5,28.88 72.25,32.26 72.86,27.6 68.19,27.17 72.21,24.75 69.64,20.82 74.04,22.46" />
        <polygon id="logo-star7" stroke="rgb(255, 172, 22)" fill="rgb(255, 172, 22)" points="45.5,38 46.96,42.46 51.36,40.82 48.79,44.75 52.81,47.17 48.14,47.6 48.75,52.26 45.5,48.88 42.25,52.26 42.86,47.6 38.19,47.17 42.21,44.75 39.64,40.82 44.04,42.46" />
        <polygon id="logo-star8" stroke="rgb(255, 172, 22)" fill="rgb(255, 172, 22)" points="25.5,67 26.96,71.46 31.36,69.82 28.79,73.75 32.81,76.17 28.14,76.6 28.75,81.26 25.5,77.88 22.25,81.26 22.86,76.6 18.19,76.17 22.21,73.75 19.64,69.82 24.04,71.46" />
        <polygon id="logo-star9" stroke="rgb(255, 172, 22)" fill="rgb(255, 172, 22)" points="15.5,112 16.96,116.46 21.36,114.82 18.79,118.75 22.81,121.17 18.14,121.6 18.75,126.26 15.5,122.88 12.25,126.26 12.86,121.6 8.19,121.17 12.21,118.75 9.64,114.82 14.04,116.46" />
        <polygon id="logo-star10" stroke="rgb(255, 172, 22)" fill="rgb(255, 172, 22)" points="10,-0 11.95,5.95 17.82,3.77 14.39,9 19.75,12.23 13.52,12.81 14.34,19.01 10,14.5 5.66,19.01 6.48,12.81 0.25,12.23 5.61,9 2.18,3.77 8.05,5.95" transform="translate(43.13, 114.9) rotate(-26)"  />
        <polygon id="logo-star11" stroke="rgb(255, 172, 22)" fill="rgb(255, 172, 22)" points="10,-0 11.95,5.95 17.82,3.77 14.39,9 19.75,12.23 13.52,12.81 14.34,19.01 10,14.5 5.66,19.01 6.48,12.81 0.25,12.23 5.61,9 2.18,3.77 8.05,5.95" transform="translate(62.13, 69.9) rotate(-26)"  />
        <polygon id="logo-star12" stroke="rgb(255, 172, 22)" fill="rgb(255, 172, 22)" points="10,-0 11.95,5.95 17.82,3.77 14.39,9 19.75,12.23 13.52,12.81 14.34,19.01 10,14.5 5.66,19.01 6.48,12.81 0.25,12.23 5.61,9 2.18,3.77 8.05,5.95" transform="translate(107.13, 51.9) rotate(-26)"  />
        <polygon id="logo-star13" stroke="rgb(255, 172, 22)" fill="rgb(255, 172, 22)" points="10,-0 11.95,5.95 17.82,3.77 14.39,9 19.75,12.23 13.52,12.81 14.34,19.01 10,14.5 5.66,19.01 6.48,12.81 0.25,12.23 5.61,9 2.18,3.77 8.05,5.95" transform="translate(152.13, 69.9) rotate(-26)"  />
        <polygon id="logo-star14" stroke="rgb(255, 172, 22)" fill="rgb(255, 172, 22)" points="10,-0 11.95,5.95 17.82,3.77 14.39,9 19.75,12.23 13.52,12.81 14.34,19.01 10,14.5 5.66,19.01 6.48,12.81 0.25,12.23 5.61,9 2.18,3.77 8.05,5.95" transform="translate(170.13, 114.9) rotate(-26)"  />
        <polygon id="logo-star15" stroke="rgb(255, 172, 22)" stroke-width="3" fill="rgb(255, 172, 22)" points="22.5,-0 26.89,13.38 40.09,8.47 32.37,20.25 44.44,27.51 30.42,28.81 32.26,42.77 22.5,32.62 12.74,42.77 14.58,28.81 0.56,27.51 12.63,20.25 4.91,8.47 18.11,13.38" transform="translate(90.41, 109.14) rotate(-26)"  />
    </g>
</svg>
